<svg xmlns="http://www.w3.org/2000/svg" viewBox="0 0 60 60">
  <style>
    path { fill: #9EEDB9; }
    @media (prefers-color-scheme: dark) {
      path { fill: #FFFFFF; }
    }
  </style>
  <path d="M30,5 L50,17.5 L50,42.5 L30,55 L10,42.5 L10,17.5 L30,5 Z" stroke="#9EEDB9" stroke-width="1.5" fill="none"/>
  <path d="M30,15 C25,10 18,14 18,20 C18,22 19,24 20,25 H27 L28,23 C28.3,22.5 29,22.4 29.3,23 L32,27 L36,18 C36.3,17.2 37.2,17.2 37.5,18 L41,25 H47 C49,21 44,13 36,19 Z"/>
  <path d="M41,26 L38,21 L34,30 C33.7,30.7 32.7,30.8 32.2,30 L29,26 L28,27 C27.8,27.3 27.4,27.5 27,27.5 H20 C21.5,29 25,33 30,38 C30.3,38.3 30.7,38.3 31,38 C36,33 39.5,29 41,27.5 H34 C33.7,27.5 33.3,27.3 33.2,27 Z"/>
</svg>